<svg xmlns="http://www.w3.org/2000/svg" version="1.1" xmlns:xlink="http://www.w3.org/1999/xlink" xmlns:svgjs="http://svgjs.dev/svgjs" width="2000" height="2670" viewBox="0 0 2000 2670"><g transform="matrix(1,0,0,1,2.607155466148015,1.080971659918987)"><svg viewBox="0 0 185 247" data-background-color="#ffffff" preserveAspectRatio="xMidYMid meet" height="2670" width="2000" xmlns="http://www.w3.org/2000/svg" xmlns:xlink="http://www.w3.org/1999/xlink"><g id="tight-bounds" transform="matrix(1,0,0,1,-0.24116172168811545,-0.09999999999999432)"><svg viewBox="0 0 185.48231613256976 247.2" height="247.2" width="185.48231613256976"><g><svg viewBox="0 0 395.52 527.1259602458222" height="247.2" width="185.48231613256976"><g transform="matrix(1,0,0,1,0,285.4785208927224)"><svg viewBox="0 0 395.52 241.64743935309974" height="241.64743935309974" width="395.52"><g><svg viewBox="0 0 395.52 241.64743935309974" height="241.64743935309974" width="395.52" id="textblock"><g><svg viewBox="0 0 395.52 241.64743935309974" height="241.64743935309974" width="395.52"><g transform="matrix(1,0,0,1,0,0)"><svg width="395.52" viewBox="0.9500000476837158 -33.5 55.64999771118164 34" height="241.64743935309974" data-palette-color="#ff0000"><path d="M15.65-17L27.05 0 24.15 0 14.1-14.85 3.9 0 0.95 0 12.75-16.95 1.95-33 4.95-33 14.3-19.05 23.8-33 26.65-33 15.65-17ZM43.7-33.5L43.7-33.5Q48.25-33.5 51.37-31.7 54.5-29.9 56.15-26.2L56.15-26.2 54.05-24.6Q52.6-28.1 49.97-29.65 47.35-31.2 43.5-31.2L43.5-31.2Q40.55-31.2 38.5-30.28 36.45-29.35 35.4-27.83 34.35-26.3 34.35-24.4L34.35-24.4Q34.35-22.15 35.82-20.63 37.3-19.1 41.35-18.2L41.35-18.2 47.8-16.8Q52.65-15.75 54.62-13.8 56.6-11.85 56.6-8.7L56.6-8.7Q56.6-6 55.02-3.9 53.45-1.8 50.7-0.65 47.95 0.5 44.25 0.5L44.25 0.5Q40.7 0.5 37.92-0.48 35.15-1.45 33.25-3.23 31.35-5 30.45-7.5L30.45-7.5 32.65-9.2Q33.35-6.85 34.97-5.18 36.6-3.5 39-2.65 41.4-1.8 44.35-1.8L44.35-1.8Q47.15-1.8 49.35-2.58 51.55-3.35 52.77-4.85 54-6.35 54-8.55L54-8.55Q54-10.65 52.52-12.1 51.05-13.55 47.3-14.3L47.3-14.3 40.5-15.8Q37.35-16.5 35.4-17.65 33.45-18.8 32.57-20.43 31.7-22.05 31.7-24.1L31.7-24.1Q31.7-26.65 33.15-28.78 34.6-30.9 37.3-32.2 40-33.5 43.7-33.5Z" opacity="1" transform="matrix(1,0,0,1,0,0)" fill="#ffffff" class="undefined-text-0" data-fill-palette-color="primary" id="text-0"></path></svg></g></svg></g></svg></g></svg></g><g transform="matrix(1,0,0,1,75.54432,0)"><svg viewBox="0 0 244.43135999999998 228.43135999999998" height="228.43135999999998" width="244.43135999999998"><g><svg xmlns="http://www.w3.org/2000/svg" xmlns:xlink="http://www.w3.org/1999/xlink" version="1.1" x="8" y="0" viewBox="0.5 0.5 70.99999237060547 70.99999237060547" enable-background="new 0 0 72 72" xml:space="preserve" height="228.43135999999998" width="228.43135999999998" class="icon-icon-0" data-fill-palette-color="accent" id="icon-0"><g fill="#ed2647" data-fill-palette-color="accent"><g fill="#ed2647" data-fill-palette-color="accent"><g fill="#ed2647" data-fill-palette-color="accent"><path d="M48.4 38.1c-0.7 0-1.4-0.3-1.9-0.9-0.9-1-0.7-2.6 0.2-3.5l3.1-3.1c0.3-0.3 0.3-0.7 0-1l-3.1-3.1c-0.9-0.9-1.1-2.4-0.3-3.4 1-1.2 2.7-1.2 3.7-0.2l5.5 5.5c0.5 0.5 0.7 1.1 0.7 1.8 0 0.7-0.3 1.3-0.7 1.8l-5.5 5.5C49.6 37.9 49 38.1 48.4 38.1z" fill="#ffffff" data-fill-palette-color="accent"></path></g><g fill="#ed2647" data-fill-palette-color="accent"><path d="M23.6 38.1c-0.6 0-1.3-0.2-1.8-0.7L16.4 32c-0.5-0.5-0.7-1.1-0.7-1.8 0-0.7 0.3-1.3 0.7-1.8l5.4-5.4c0.9-0.9 2.4-1.1 3.4-0.3 1.2 1 1.2 2.7 0.2 3.7l-3.2 3.2c-0.3 0.3-0.3 0.7 0 1l3.1 3.1c0.9 0.9 1.1 2.5 0.2 3.5C25 37.8 24.3 38.1 23.6 38.1z" fill="#ffffff" data-fill-palette-color="accent"></path></g></g><g fill="#ed2647" data-fill-palette-color="accent"><path d="M32.7 41.9c-0.3 0-0.6 0-0.8-0.1-1.3-0.5-2-1.9-1.5-3.2l6.6-18.4c0.5-1.3 1.9-2 3.2-1.5 1.3 0.5 2 1.9 1.5 3.2l-6.6 18.4C34.7 41.2 33.7 41.9 32.7 41.9z" fill="#ffffff" data-fill-palette-color="accent"></path></g><g fill="#ed2647" data-fill-palette-color="accent"><path d="M69.8 0.5H2.2c-0.9 0-1.7 0.8-1.7 1.7v67.6c0 0.9 0.8 1.7 1.7 1.7h67.6c0.9 0 1.7-0.8 1.7-1.7V2.2C71.5 1.3 70.7 0.5 69.8 0.5zM25 4.5c1.2 0 2.1 0.9 2.1 2.1 0 1.2-0.9 2.1-2.1 2.1-1.2 0-2.1-0.9-2.1-2.1C22.9 5.4 23.8 4.5 25 4.5zM16.1 4.5c1.2 0 2.1 0.9 2.1 2.1 0 1.2-0.9 2.1-2.1 2.1C15 8.7 14 7.8 14 6.6 14 5.4 15 4.5 16.1 4.5zM7.3 4.5c1.2 0 2.1 0.9 2.1 2.1 0 1.2-0.9 2.1-2.1 2.1S5.2 7.8 5.2 6.6C5.2 5.4 6.1 4.5 7.3 4.5zM5.5 64.8V16.5c0-0.9 0.8-1.7 1.7-1.7h57.6c0.9 0 1.7 0.8 1.7 1.7V46c-0.1 0-0.1-0.1-0.2-0.1-0.4-0.1-0.6-0.5-0.6-0.8v-3.5c0-0.5-0.4-0.9-0.9-0.9H59c-0.5 0-0.9 0.4-0.9 0.9v3.5c0 0.4-0.3 0.7-0.6 0.8-0.8 0.2-1.5 0.6-2.2 0.9-0.3 0.2-0.8 0.1-1-0.1L52 44.5c-0.6-0.6-1.1-0.6-1.5-0.2l-4.1 4.1c-0.4 0.4-0.4 0.9 0 1.3l2.4 2.4c0.3 0.3 0.3 0.7 0.2 1-0.4 0.7-0.7 1.5-0.9 2.2C48 55.7 47.6 56 47.2 56l-3.5 0c-0.5 0-0.9 0.4-0.9 0.9v5.8c0 0.5 0.4 0.9 0.9 0.9h3.5c0.4 0 0.7 0.3 0.8 0.6 0.1 0.4 0.3 0.9 0.5 1.3 0.2 0.5-0.2 1.1-0.7 1.1H7.2C6.3 66.5 5.5 65.7 5.5 64.8zM64.8 66.5h-8.4c-0.3 0-0.6-0.1-0.8-0.3-1.9-1.9-3-4.7-2.6-7.7 0.5-3.9 3.7-7.1 7.6-7.7 2.2-0.3 4.3 0.1 6 1.2v12.8C66.5 65.7 65.7 66.5 64.8 66.5z" fill="#ffffff" data-fill-palette-color="accent"></path></g></g></svg></g></svg></g><g></g></svg></g><defs></defs></svg><rect width="185.48231613256976" height="247.2" fill="none" stroke="none" visibility="hidden"></rect></g></svg></g></svg>